<mxfile host="app.diagrams.net" modified="2021-06-27T13:32:47.799Z" agent="5.0 (Windows NT 10.0; Win64; x64) AppleWebKit/537.36 (KHTML, like Gecko) Chrome/91.0.4472.114 Safari/537.36" etag="lh6UlXBgCZwMGxxhbBqV" version="14.8.1" type="github" pages="2">
  <diagram id="h5ZDWR_RAiT3dMpIxMez" name="А0">
    <mxGraphModel dx="1038" dy="2233" grid="1" gridSize="10" guides="1" tooltips="1" connect="1" arrows="1" fold="1" page="1" pageScale="1" pageWidth="1169" pageHeight="1654" math="0" shadow="0">
      <root>
        <mxCell id="0Ve_HndU7s32zG7wGKZf-0" />
        <mxCell id="0Ve_HndU7s32zG7wGKZf-1" parent="0Ve_HndU7s32zG7wGKZf-0" />
        <mxCell id="0Ve_HndU7s32zG7wGKZf-2" value="" style="swimlane;startSize=0;" vertex="1" parent="0Ve_HndU7s32zG7wGKZf-1">
          <mxGeometry x="320" y="120" width="200" height="200" as="geometry" />
        </mxCell>
        <mxCell id="0Ve_HndU7s32zG7wGKZf-4" value="процесс &lt;br style=&quot;font-size: 25px;&quot;&gt;охоты" style="text;html=1;align=center;verticalAlign=middle;resizable=0;points=[];autosize=1;strokeColor=none;fontStyle=1;fontSize=25;" vertex="1" parent="0Ve_HndU7s32zG7wGKZf-2">
          <mxGeometry x="40" y="70" width="120" height="60" as="geometry" />
        </mxCell>
        <mxCell id="0Ve_HndU7s32zG7wGKZf-3" value="A0" style="text;html=1;align=center;verticalAlign=middle;resizable=0;points=[];autosize=1;strokeColor=none;" vertex="1" parent="0Ve_HndU7s32zG7wGKZf-2">
          <mxGeometry x="170" y="180" width="30" height="20" as="geometry" />
        </mxCell>
        <mxCell id="0Ve_HndU7s32zG7wGKZf-9" value="" style="endArrow=classic;html=1;fontSize=18;exitX=1;exitY=0.15;exitDx=0;exitDy=0;exitPerimeter=0;" edge="1" parent="0Ve_HndU7s32zG7wGKZf-1">
          <mxGeometry relative="1" as="geometry">
            <mxPoint x="160" y="219.5" as="sourcePoint" />
            <mxPoint x="320" y="219.5" as="targetPoint" />
            <Array as="points">
              <mxPoint x="280" y="219.5" />
            </Array>
          </mxGeometry>
        </mxCell>
        <mxCell id="0Ve_HndU7s32zG7wGKZf-10" value="голодный орел" style="edgeLabel;resizable=0;html=1;align=center;verticalAlign=middle;fontSize=18;" connectable="0" vertex="1" parent="0Ve_HndU7s32zG7wGKZf-9">
          <mxGeometry relative="1" as="geometry" />
        </mxCell>
        <mxCell id="0Ve_HndU7s32zG7wGKZf-13" value="голо" style="endArrow=classic;html=1;fontSize=18;exitX=1;exitY=0.15;exitDx=0;exitDy=0;exitPerimeter=0;" edge="1" parent="0Ve_HndU7s32zG7wGKZf-1">
          <mxGeometry relative="1" as="geometry">
            <mxPoint x="520" y="219.5" as="sourcePoint" />
            <mxPoint x="680" y="219.5" as="targetPoint" />
            <Array as="points">
              <mxPoint x="640" y="219.5" />
            </Array>
          </mxGeometry>
        </mxCell>
        <mxCell id="0Ve_HndU7s32zG7wGKZf-14" value="сытый орел" style="edgeLabel;resizable=0;html=1;align=center;verticalAlign=middle;fontSize=18;" connectable="0" vertex="1" parent="0Ve_HndU7s32zG7wGKZf-13">
          <mxGeometry relative="1" as="geometry" />
        </mxCell>
        <mxCell id="0Ve_HndU7s32zG7wGKZf-15" value="" style="endArrow=classic;html=1;fontSize=18;" edge="1" parent="0Ve_HndU7s32zG7wGKZf-1">
          <mxGeometry relative="1" as="geometry">
            <mxPoint x="320" y="500" as="sourcePoint" />
            <mxPoint x="320" y="320" as="targetPoint" />
            <Array as="points">
              <mxPoint x="320" y="360" />
            </Array>
          </mxGeometry>
        </mxCell>
        <mxCell id="0Ve_HndU7s32zG7wGKZf-16" value="мышь" style="edgeLabel;resizable=0;html=1;align=center;verticalAlign=middle;" connectable="0" vertex="1" parent="0Ve_HndU7s32zG7wGKZf-15">
          <mxGeometry relative="1" as="geometry" />
        </mxCell>
        <mxCell id="0Ve_HndU7s32zG7wGKZf-17" value="" style="endArrow=classic;html=1;fontSize=18;" edge="1" parent="0Ve_HndU7s32zG7wGKZf-1">
          <mxGeometry relative="1" as="geometry">
            <mxPoint x="360" y="500" as="sourcePoint" />
            <mxPoint x="360" y="320" as="targetPoint" />
            <Array as="points">
              <mxPoint x="360" y="360" />
            </Array>
          </mxGeometry>
        </mxCell>
        <mxCell id="0Ve_HndU7s32zG7wGKZf-18" value="ареал" style="edgeLabel;resizable=0;html=1;align=center;verticalAlign=middle;" connectable="0" vertex="1" parent="0Ve_HndU7s32zG7wGKZf-17">
          <mxGeometry relative="1" as="geometry" />
        </mxCell>
        <mxCell id="0Ve_HndU7s32zG7wGKZf-19" value="ск" style="endArrow=classic;html=1;fontSize=18;" edge="1" parent="0Ve_HndU7s32zG7wGKZf-1">
          <mxGeometry relative="1" as="geometry">
            <mxPoint x="400" y="500" as="sourcePoint" />
            <mxPoint x="400" y="320" as="targetPoint" />
            <Array as="points">
              <mxPoint x="400" y="360" />
            </Array>
          </mxGeometry>
        </mxCell>
        <mxCell id="0Ve_HndU7s32zG7wGKZf-20" value="скорость&lt;br&gt;орла" style="edgeLabel;resizable=0;html=1;align=center;verticalAlign=middle;" connectable="0" vertex="1" parent="0Ve_HndU7s32zG7wGKZf-19">
          <mxGeometry relative="1" as="geometry" />
        </mxCell>
        <mxCell id="0Ve_HndU7s32zG7wGKZf-21" value="ск" style="endArrow=classic;html=1;fontSize=18;" edge="1" parent="0Ve_HndU7s32zG7wGKZf-1">
          <mxGeometry relative="1" as="geometry">
            <mxPoint x="460" y="500" as="sourcePoint" />
            <mxPoint x="460" y="320" as="targetPoint" />
            <Array as="points">
              <mxPoint x="460" y="360" />
            </Array>
          </mxGeometry>
        </mxCell>
        <mxCell id="0Ve_HndU7s32zG7wGKZf-22" value="клюв и&lt;br&gt;когти" style="edgeLabel;resizable=0;html=1;align=center;verticalAlign=middle;" connectable="0" vertex="1" parent="0Ve_HndU7s32zG7wGKZf-21">
          <mxGeometry relative="1" as="geometry" />
        </mxCell>
        <mxCell id="0Ve_HndU7s32zG7wGKZf-23" value="ск" style="endArrow=block;html=1;fontSize=18;endFill=0;" edge="1" parent="0Ve_HndU7s32zG7wGKZf-1">
          <mxGeometry relative="1" as="geometry">
            <mxPoint x="520" y="500" as="sourcePoint" />
            <mxPoint x="520" y="320" as="targetPoint" />
            <Array as="points">
              <mxPoint x="520" y="360" />
              <mxPoint x="520" y="330" />
            </Array>
          </mxGeometry>
        </mxCell>
        <mxCell id="0Ve_HndU7s32zG7wGKZf-24" value="остаток сил&lt;br&gt;на охоту" style="edgeLabel;resizable=0;html=1;align=center;verticalAlign=middle;" connectable="0" vertex="1" parent="0Ve_HndU7s32zG7wGKZf-23">
          <mxGeometry relative="1" as="geometry" />
        </mxCell>
        <mxCell id="0Ve_HndU7s32zG7wGKZf-25" value="ск" style="endArrow=classic;html=1;fontSize=18;" edge="1" parent="0Ve_HndU7s32zG7wGKZf-1">
          <mxGeometry relative="1" as="geometry">
            <mxPoint x="340" y="-10" as="sourcePoint" />
            <mxPoint x="340" y="120" as="targetPoint" />
            <Array as="points">
              <mxPoint x="340" y="-30" />
            </Array>
          </mxGeometry>
        </mxCell>
        <mxCell id="0Ve_HndU7s32zG7wGKZf-26" value="голод" style="edgeLabel;resizable=0;html=1;align=center;verticalAlign=middle;" connectable="0" vertex="1" parent="0Ve_HndU7s32zG7wGKZf-25">
          <mxGeometry relative="1" as="geometry" />
        </mxCell>
        <mxCell id="0Ve_HndU7s32zG7wGKZf-27" value="ск" style="endArrow=classic;html=1;fontSize=18;" edge="1" parent="0Ve_HndU7s32zG7wGKZf-1">
          <mxGeometry relative="1" as="geometry">
            <mxPoint x="419.5" y="-10" as="sourcePoint" />
            <mxPoint x="419.5" y="120" as="targetPoint" />
            <Array as="points">
              <mxPoint x="419.5" y="-30" />
            </Array>
          </mxGeometry>
        </mxCell>
        <mxCell id="0Ve_HndU7s32zG7wGKZf-28" value="климатические&amp;nbsp;&lt;br&gt;условия" style="edgeLabel;resizable=0;html=1;align=center;verticalAlign=middle;" connectable="0" vertex="1" parent="0Ve_HndU7s32zG7wGKZf-27">
          <mxGeometry relative="1" as="geometry" />
        </mxCell>
        <mxCell id="0Ve_HndU7s32zG7wGKZf-29" value="ск" style="endArrow=classic;html=1;fontSize=18;" edge="1" parent="0Ve_HndU7s32zG7wGKZf-1">
          <mxGeometry relative="1" as="geometry">
            <mxPoint x="500" y="-10" as="sourcePoint" />
            <mxPoint x="500" y="120" as="targetPoint" />
            <Array as="points">
              <mxPoint x="500" y="-30" />
            </Array>
          </mxGeometry>
        </mxCell>
        <mxCell id="0Ve_HndU7s32zG7wGKZf-30" value="чутье" style="edgeLabel;resizable=0;html=1;align=center;verticalAlign=middle;" connectable="0" vertex="1" parent="0Ve_HndU7s32zG7wGKZf-29">
          <mxGeometry relative="1" as="geometry" />
        </mxCell>
      </root>
    </mxGraphModel>
  </diagram>
  <diagram id="Lj7XlKhVyZBfHCmgRNDf" name="A1">
    <mxGraphModel dx="2207" dy="579" grid="1" gridSize="10" guides="1" tooltips="1" connect="1" arrows="1" fold="1" page="1" pageScale="1" pageWidth="1169" pageHeight="1654" math="0" shadow="0">
      <root>
        <mxCell id="lqADNaVl4EDBkmdzIJdQ-0" />
        <mxCell id="lqADNaVl4EDBkmdzIJdQ-1" parent="lqADNaVl4EDBkmdzIJdQ-0" />
        <mxCell id="Ff8zrszzXhZnrY6e9DHP-0" value="" style="rounded=0;whiteSpace=wrap;html=1;fontSize=25;verticalAlign=top;" vertex="1" parent="lqADNaVl4EDBkmdzIJdQ-1">
          <mxGeometry x="120" y="80" width="120" height="40" as="geometry" />
        </mxCell>
        <mxCell id="Ff8zrszzXhZnrY6e9DHP-1" value="" style="rounded=0;whiteSpace=wrap;html=1;fontSize=25;verticalAlign=top;" vertex="1" parent="lqADNaVl4EDBkmdzIJdQ-1">
          <mxGeometry x="320" y="160" width="120" height="40" as="geometry" />
        </mxCell>
        <mxCell id="Ff8zrszzXhZnrY6e9DHP-2" value="" style="rounded=0;whiteSpace=wrap;html=1;fontSize=25;verticalAlign=top;" vertex="1" parent="lqADNaVl4EDBkmdzIJdQ-1">
          <mxGeometry x="520" y="240" width="120" height="40" as="geometry" />
        </mxCell>
        <mxCell id="Ff8zrszzXhZnrY6e9DHP-3" value="" style="rounded=0;whiteSpace=wrap;html=1;fontSize=25;verticalAlign=top;" vertex="1" parent="lqADNaVl4EDBkmdzIJdQ-1">
          <mxGeometry x="720" y="320" width="120" height="40" as="geometry" />
        </mxCell>
        <mxCell id="Yp0maZx61KKVg4qmjxtq-0" value="" style="endArrow=classic;html=1;fontSize=18;" edge="1" parent="lqADNaVl4EDBkmdzIJdQ-1">
          <mxGeometry relative="1" as="geometry">
            <mxPoint x="-20" y="100" as="sourcePoint" />
            <mxPoint x="120" y="99.5" as="targetPoint" />
            <Array as="points">
              <mxPoint x="80" y="99.5" />
            </Array>
          </mxGeometry>
        </mxCell>
        <mxCell id="Yp0maZx61KKVg4qmjxtq-1" value="голодный орел" style="edgeLabel;resizable=0;html=1;align=center;verticalAlign=middle;fontSize=12;" connectable="0" vertex="1" parent="Yp0maZx61KKVg4qmjxtq-0">
          <mxGeometry relative="1" as="geometry" />
        </mxCell>
        <mxCell id="-_49oVmfm856OcDhZgPX-0" value="голо" style="endArrow=classic;html=1;fontSize=18;" edge="1" parent="lqADNaVl4EDBkmdzIJdQ-1">
          <mxGeometry relative="1" as="geometry">
            <mxPoint x="840" y="340" as="sourcePoint" />
            <mxPoint x="980" y="339.5" as="targetPoint" />
            <Array as="points">
              <mxPoint x="940" y="339.5" />
            </Array>
          </mxGeometry>
        </mxCell>
        <mxCell id="-_49oVmfm856OcDhZgPX-1" value="сытый орел" style="edgeLabel;resizable=0;html=1;align=center;verticalAlign=middle;fontSize=12;" connectable="0" vertex="1" parent="-_49oVmfm856OcDhZgPX-0">
          <mxGeometry relative="1" as="geometry" />
        </mxCell>
        <mxCell id="-_49oVmfm856OcDhZgPX-10" value="A3" style="text;html=1;strokeColor=none;fillColor=none;align=center;verticalAlign=middle;whiteSpace=wrap;rounded=0;fontSize=12;" vertex="1" parent="lqADNaVl4EDBkmdzIJdQ-1">
          <mxGeometry x="620" y="270" width="20" height="10" as="geometry" />
        </mxCell>
        <mxCell id="-_49oVmfm856OcDhZgPX-11" value="A4" style="text;html=1;strokeColor=none;fillColor=none;align=center;verticalAlign=middle;whiteSpace=wrap;rounded=0;fontSize=12;" vertex="1" parent="lqADNaVl4EDBkmdzIJdQ-1">
          <mxGeometry x="820" y="350" width="20" height="10" as="geometry" />
        </mxCell>
        <mxCell id="-_49oVmfm856OcDhZgPX-12" value="A2" style="text;html=1;strokeColor=none;fillColor=none;align=center;verticalAlign=middle;whiteSpace=wrap;rounded=0;fontSize=12;" vertex="1" parent="lqADNaVl4EDBkmdzIJdQ-1">
          <mxGeometry x="420" y="190" width="20" height="10" as="geometry" />
        </mxCell>
        <mxCell id="-_49oVmfm856OcDhZgPX-13" value="A1" style="text;html=1;strokeColor=none;fillColor=none;align=center;verticalAlign=middle;whiteSpace=wrap;rounded=0;fontSize=12;" vertex="1" parent="lqADNaVl4EDBkmdzIJdQ-1">
          <mxGeometry x="220" y="110" width="20" height="10" as="geometry" />
        </mxCell>
      </root>
    </mxGraphModel>
  </diagram>
</mxfile>
